<?xml version="1.0" standalone="no"?>
<!DOCTYPE svg PUBLIC "-//W3C//DTD SVG 20010904//EN"
 "http://www.w3.org/TR/2001/REC-SVG-20010904/DTD/svg10.dtd">
<svg version="1.0" xmlns="http://www.w3.org/2000/svg"
 width="694.000000pt" height="694.000000pt" viewBox="0 0 694.000000 694.000000"
 preserveAspectRatio="xMidYMid meet">
<metadata>
Created by potrace 1.11, written by Peter Selinger 2001-2013
</metadata>
<g transform="translate(0.000000,694.000000) scale(0.100000,-0.100000)"
fill="#000000" stroke="none">
<path d="M2120 5803 c-110 -53 -198 -174 -235 -319 -14 -54 -15 -291 -13
-2075 l3 -2014 24 -58 c52 -130 162 -216 301 -238 41 -6 468 -9 1165 -7 l1100
3 54 22 c111 45 180 114 223 221 23 57 23 59 26 670 l3 612 284 0 c169 0 306
4 337 11 187 39 348 200 387 387 15 73 15 1341 0 1414 -39 187 -200 348 -387
387 -31 7 -168 11 -337 11 l-285 0 0 298 c0 234 -3 311 -15 357 -37 146 -127
266 -237 318 l-57 27 -1143 0 -1143 -1 -55 -26z m2293 -289 c61 -61 58 49 55
-1749 l-3 -1640 -21 -46 c-28 -60 -78 -115 -128 -142 l-41 -22 -960 0 -960 0
-41 22 c-50 27 -100 82 -128 142 l-21 46 1 1640 c1 1623 1 1641 21 1686 11 25
31 56 44 67 l23 22 1067 0 1066 0 26 -26z m997 -928 c49 -26 108 -84 133 -131
22 -40 22 -41 22 -730 0 -689 0 -690 -22 -730 -25 -47 -84 -105 -133 -131 -31
-17 -65 -19 -337 -22 l-303 -3 0 886 0 886 303 -3 c272 -3 306 -5 337 -22z
m-2029 -2870 c86 -15 166 -110 176 -209 20 -191 -174 -327 -344 -242 -162 81
-177 313 -28 417 38 27 113 49 145 43 8 -2 31 -6 51 -9z"/>
</g>
</svg>
